{
  "accessors": [
    {
      "bufferView": 2,
      "componentType": 5126,
      "count": 15795,
      "max": [
        1.255202054977417,
        1.7801450490951538,
        1.449381947517395
      ],
      "min": [
        -1.255202054977417,
        -0.14719900488853455,
        -1.449381947517395
      ],
      "type": "VEC3"
    },
    {
      "bufferView": 2,
      "byteOffset": 189540,
      "componentType": 5126,
      "count": 15795,
      "max": [
        1.0,
        1.0,
        1.0
      ],
      "min": [
        -1.0,
        -1.0,
        -1.0
      ],
      "type": "VEC3"
    },
    {
      "bufferView": 1,
      "componentType": 5126,
      "count": 15795,
      "max": [
        0.9928690195083618,
        0.980139970779419
      ],
      "min": [
        0.007206975948065519,
        0.018631989136338234
      ],
      "type": "VEC2"
    },
    {
      "bufferView": 0,
      "componentType": 5125,
      "count": 47928,
      "type": "SCALAR"
    }
  ],
  "asset": {
    "extras": {
      "author": "Nick Havas (https://sketchfab.com/nickhavas)",
      "license": "CC-BY-4.0 (http://creativecommons.org/licenses/by/4.0/)",
      "source": "https://sketchfab.com/3d-models/a-regal-crown-22a8606de16345729947b7ec10c655d4",
      "title": "A regal crown"
    },
    "generator": "Sketchfab-12.68.0",
    "version": "2.0"
  },
  "bufferViews": [
    {
      "buffer": 0,
      "byteLength": 191712,
      "name": "floatBufferViews",
      "target": 34963
    },
    {
      "buffer": 0,
      "byteLength": 126360,
      "byteOffset": 191712,
      "byteStride": 8,
      "name": "floatBufferViews",
      "target": 34962
    },
    {
      "buffer": 0,
      "byteLength": 379080,
      "byteOffset": 318072,
      "byteStride": 12,
      "name": "floatBufferViews",
      "target": 34962
    }
  ],
  "buffers": [
    {
      "byteLength": 697152,
      "uri": "scene.bin"
    }
  ],
  "images": [
    {
      "uri": "textures/lambert1_baseColor.jpeg"
    },
    {
      "uri": "textures/lambert1_metallicRoughness.png"
    }
  ],
  "materials": [
    {
      "doubleSided": true,
      "name": "lambert1",
      "pbrMetallicRoughness": {
        "baseColorTexture": {
          "index": 0
        },
        "metallicRoughnessTexture": {
          "index": 1
        }
      }
    }
  ],
  "meshes": [
    {
      "name": "lambert1-material",
      "primitives": [
        {
          "attributes": {
            "NORMAL": 1,
            "POSITION": 0,
            "TEXCOORD_0": 2
          },
          "indices": 3,
          "material": 0,
          "mode": 4
        }
      ]
    }
  ],
  "nodes": [
    {
      "children": [
        1
      ],
      "matrix": [
        1.0,
        0.0,
        0.0,
        0.0,
        0.0,
        2.220446049250313e-16,
        -1.0,
        0.0,
        0.0,
        1.0,
        2.220446049250313e-16,
        0.0,
        0.0,
        0.0,
        0.0,
        1.0
      ],
      "name": "Sketchfab_model"
    },
    {
      "children": [
        2
      ],
      "name": "Collada visual scene group"
    },
    {
      "children": [
        3
      ],
      "matrix": [
        0.7089463,
        0.0,
        0.0,
        0.0,
        0.0,
        -1.15502e-07,
        0.7089463,
        0.0,
        0.0,
        -0.7089463,
        -1.15502e-07,
        0.0,
        0.0,
        0.0,
        0.0,
        1.0
      ],
      "name": "polySurface3_002"
    },
    {
      "mesh": 0,
      "name": "lambert1-material"
    }
  ],
  "samplers": [
    {
      "magFilter": 9729,
      "minFilter": 9987,
      "wrapS": 10497,
      "wrapT": 10497
    }
  ],
  "scene": 0,
  "scenes": [
    {
      "name": "Sketchfab_Scene",
      "nodes": [
        0
      ]
    }
  ],
  "textures": [
    {
      "sampler": 0,
      "source": 0
    },
    {
      "sampler": 0,
      "source": 1
    }
  ]
}
